<svg width="137" height="20" viewBox="0 0 137 20" fill="none" xmlns="http://www.w3.org/2000/svg">
<path d="M68.9909 5.19475C68.9909 10.1315 68.9909 15.0432 68.9909 19.9925C68.8603 19.9925 68.7423 19.9925 68.6243 19.9925C65.7292 19.9925 62.8366 19.995 59.9414 19.9925C56.7124 19.9875 53.9679 18.0714 52.8631 15.0532C51.4017 11.0633 53.772 6.51973 57.895 5.45524C58.5328 5.28993 59.2057 5.19976 59.8661 5.19224C62.8215 5.16469 65.7744 5.17972 68.7298 5.17972C68.8001 5.17972 68.8729 5.18723 68.9909 5.19475ZM64.5063 9.67565C64.4084 9.66563 64.3381 9.6506 64.2678 9.6506C62.814 9.6506 61.3601 9.63808 59.9088 9.65812C59.5648 9.66313 59.2057 9.72574 58.8793 9.83595C57.5661 10.2818 56.74 11.6418 56.9459 12.9693C57.1693 14.422 58.3344 15.4815 59.7757 15.5016C61.2773 15.5216 62.7788 15.5091 64.2804 15.5066C64.3507 15.5066 64.421 15.4916 64.5089 15.4815C64.5063 13.5504 64.5063 11.6343 64.5063 9.67565Z" fill="white"/>
<path d="M137 5.20226C134.622 7.33626 132.32 9.40514 129.984 11.5016C132.001 14.3168 134.007 17.1221 136.051 19.975C135.903 19.9825 135.812 19.9925 135.724 19.9925C134.102 19.9925 132.478 19.9875 130.856 20C130.62 20.0025 130.484 19.9199 130.354 19.7345C129.198 18.109 128.036 16.4884 126.873 14.8679C126.798 14.7627 126.718 14.6575 126.617 14.5272C125.917 15.1559 125.269 15.8096 124.543 16.3657C123.963 16.809 123.742 17.31 123.81 18.0263C123.87 18.66 123.823 19.3037 123.823 19.97C122.331 19.97 120.862 19.97 119.366 19.97C119.366 13.9061 119.366 7.84722 119.366 1.7583C120.829 1.7583 122.298 1.7583 123.815 1.7583C123.815 4.80401 123.815 7.84972 123.815 11.0031C123.988 10.8529 124.084 10.7727 124.177 10.69C126.13 8.93676 128.086 7.18598 130.035 5.42518C130.228 5.25235 130.419 5.17471 130.68 5.17721C132.641 5.18723 134.605 5.18222 136.566 5.18473C136.679 5.17972 136.794 5.18973 137 5.20226Z" fill="white"/>
<path d="M21.1523 5.19727C26.6688 5.19727 32.1653 5.19727 37.6944 5.19727C37.702 5.31248 37.717 5.41768 37.717 5.52288C37.717 7.57673 37.7321 9.63058 37.7145 11.6869C37.6768 15.6569 35.0303 18.9305 31.171 19.8072C26.5709 20.8516 21.888 17.6281 21.2276 12.9593C21.1699 12.5536 21.1347 12.1428 21.1322 11.732C21.1221 9.65312 21.1272 7.57422 21.1272 5.49783C21.1272 5.40015 21.1422 5.30497 21.1523 5.19727ZM33.2651 9.67817C30.6688 9.67817 28.1578 9.67817 25.6469 9.67817C25.6469 10.5122 25.5841 11.3238 25.6594 12.1228C25.8302 13.9562 27.3543 15.4089 29.1195 15.4991C31.0705 15.5993 32.7629 14.3945 33.1094 12.531C33.2802 11.6143 33.2199 10.655 33.2651 9.67817Z" fill="white"/>
<path d="M19.8892 19.98C18.2923 19.98 16.7229 19.98 15.1335 19.98C14.5987 18.5147 14.0638 17.0545 13.5315 15.5917C12.4317 12.5761 11.3369 9.56042 10.2296 6.54978C10.1819 6.42204 10.0589 6.32436 9.97099 6.21164C9.87306 6.32436 9.72994 6.42204 9.68223 6.55479C8.08024 10.9255 6.48328 15.3012 4.89635 19.6794C4.80847 19.9224 4.69799 20.0025 4.43685 20C2.97297 19.9875 1.50908 19.9925 0 19.9925C0.276205 19.2361 0.537344 18.5147 0.800993 17.7909C2.71434 12.5435 4.62768 7.29618 6.53601 2.04633C6.62138 1.81089 6.72182 1.71321 6.99049 1.71571C8.97665 1.72824 10.9628 1.72824 12.949 1.71822C13.18 1.71822 13.288 1.78835 13.3658 2.00626C15.5076 7.90231 17.6545 13.7959 19.8014 19.6894C19.834 19.7796 19.8566 19.8723 19.8892 19.98Z" fill="white"/>
<path d="M115.476 19.9825C113.98 19.9825 112.516 19.9825 111.014 19.9825C111.014 16.5485 111.014 13.1221 111.014 9.67315C108.466 9.67315 105.955 9.67315 103.409 9.67315C103.409 13.1096 103.409 16.526 103.409 19.9649C101.904 19.9649 100.436 19.9649 98.939 19.9649C98.939 15.0532 98.939 10.144 98.939 5.20477C104.446 5.20477 109.95 5.20477 115.476 5.20477C115.476 10.1265 115.476 15.0382 115.476 19.9825Z" fill="white"/>
<path d="M87.8833 15.5016C87.8833 17.0194 87.8833 18.4797 87.8833 19.9649C82.9543 19.9649 78.0303 19.9649 73.0787 19.9649C73.0787 13.9061 73.0787 7.83971 73.0787 1.74579C74.5476 1.74579 76.0191 1.74579 77.5332 1.74579C77.5332 6.32187 77.5332 10.8929 77.5332 15.4991C81.0008 15.5016 84.4232 15.5016 87.8833 15.5016Z" fill="white"/>
<path d="M45.2448 19.975C43.7257 19.975 42.2643 19.975 40.7804 19.975C40.7728 19.8397 40.7628 19.722 40.7628 19.6068C40.7628 17.2874 40.7502 14.9681 40.7653 12.6487C40.7854 9.37009 42.6987 6.655 45.8048 5.593C46.5581 5.33502 47.3867 5.26739 48.1877 5.19726C48.9183 5.13214 49.6591 5.18474 50.4149 5.18474C50.4149 6.68255 50.4149 8.13778 50.4149 9.63308C50.2793 9.64059 50.1537 9.65312 50.0257 9.65312C49.4431 9.65562 48.8631 9.6456 48.2806 9.65562C46.4877 9.68818 45.2549 10.918 45.2448 12.7114C45.2323 14.9831 45.2423 17.2549 45.2423 19.5241C45.2448 19.6644 45.2448 19.8072 45.2448 19.975Z" fill="white"/>
<path d="M90.5851 5.19977C92.059 5.19977 93.5179 5.19977 95.0069 5.19977C95.0069 10.1215 95.0069 15.0407 95.0069 19.975C93.5354 19.975 92.0741 19.975 90.5851 19.975C90.5851 15.0557 90.5851 10.139 90.5851 5.19977Z" fill="white"/>
<path d="M90.56 2.22418C90.5675 0.999386 91.597 -0.0150159 92.8148 1.22741e-05C94.0402 0.0150405 95.0445 1.03946 95.0345 2.26426C95.0219 3.49907 94.0176 4.48592 92.7771 4.47841C91.5418 4.4709 90.5524 3.46401 90.56 2.22418Z" fill="white"/>
</svg>
