<svg width="20" height="20" viewBox="0 0 20 20" fill="none" xmlns="http://www.w3.org/2000/svg">
<path d="M12.0834 12.8417C12.15 12.9167 12.15 13.075 12.0834 13.1667C11.475 13.75 10.3417 13.8 10 13.8C9.67502 13.8 8.54169 13.75 7.95002 13.1667C7.86669 13.075 7.86669 12.9167 7.95002 12.8417C8.04169 12.7583 8.18335 12.7583 8.26669 12.8417C8.65002 13.225 9.44169 13.3333 10 13.3333C10.575 13.3333 11.3834 13.225 11.75 12.8417C11.8417 12.7583 11.9834 12.7583 12.0834 12.8417ZM8.95835 10.8667C8.95835 10.3917 8.56669 9.99999 8.09169 9.99999C7.61669 9.99999 7.22502 10.3917 7.22502 10.8667C7.22502 11.3417 7.61669 11.7417 8.09169 11.7333C8.56669 11.7333 8.95835 11.3417 8.95835 10.8667ZM11.9084 9.99999C11.4334 9.99999 11.0417 10.4167 11.0417 10.875C11.0417 11.3333 11.4334 11.7417 11.9084 11.7417C12.3834 11.7417 12.775 11.3417 12.775 10.875C12.775 10.4167 12.3834 9.99999 11.9084 9.99999ZM18.3334 9.99999C18.3334 14.5833 14.5834 18.3333 10 18.3333C5.41669 18.3333 1.66669 14.5833 1.66669 9.99999C1.66669 5.41666 5.41669 1.66666 10 1.66666C14.5834 1.66666 18.3334 5.41666 18.3334 9.99999ZM15.5584 9.99999C15.5584 9.32499 15 8.78332 14.35 8.78332C14.0167 8.78332 13.7167 8.91666 13.5 9.12499C12.6667 8.52499 11.525 8.14166 10.25 8.09166L10.8084 5.48332L12.6167 5.87499C12.6334 6.33332 13.0167 6.69999 13.4834 6.69999C13.9584 6.69999 14.35 6.30832 14.35 5.83332C14.35 5.35832 13.9584 4.96666 13.4834 4.96666C13.1417 4.96666 12.8417 5.16666 12.7084 5.45832L10.6834 5.02499C10.625 4.99999 10.5667 5.02499 10.525 5.05832C10.475 5.09166 10.45 5.14166 10.4417 5.19999L9.82502 8.09999C8.53335 8.14166 7.36669 8.52499 6.51669 9.13332C6.30002 8.92499 6.00002 8.79999 5.67502 8.79999C5.00002 8.79999 4.45835 9.34166 4.45835 9.99999C4.45835 10.5083 4.75835 10.925 5.17502 11.1167C5.15835 11.25 5.15002 11.35 5.15002 11.4833C5.15002 13.3333 7.32502 14.875 10 14.875C12.6917 14.875 14.875 13.3583 14.875 11.4833C14.875 11.3667 14.8667 11.25 14.8417 11.1167C15.2584 10.925 15.5584 10.5 15.5584 9.99999Z" fill="white"/>
</svg>
