<svg width="20" height="20" viewBox="0 0 20 20" fill="none" xmlns="http://www.w3.org/2000/svg">
<path d="M18.3334 20L13.9584 15.8333L14.4834 17.5H3.75002C3.19749 17.5 2.66758 17.2805 2.27688 16.8898C1.88618 16.4991 1.66669 15.9692 1.66669 15.4167V2.91668C1.66669 2.36414 1.88618 1.83424 2.27688 1.44354C2.66758 1.05284 3.19749 0.833344 3.75002 0.833344H16.25C16.8026 0.833344 17.3325 1.05284 17.7232 1.44354C18.1139 1.83424 18.3334 2.36414 18.3334 2.91668V20ZM10 5.66668C7.76669 5.66668 6.20002 6.62501 6.20002 6.62501C7.05835 5.85834 8.55835 5.41668 8.55835 5.41668L8.41669 5.27501C7.00835 5.30001 5.73335 6.27501 5.73335 6.27501C4.30002 9.26668 4.39169 11.85 4.39169 11.85C5.55835 13.3583 7.29169 13.25 7.29169 13.25L7.88335 12.5C6.84169 12.275 6.18335 11.35 6.18335 11.35C6.18335 11.35 7.75002 12.4167 10 12.4167C12.25 12.4167 13.8167 11.35 13.8167 11.35C13.8167 11.35 13.1584 12.275 12.1167 12.5L12.7084 13.25C12.7084 13.25 14.4417 13.3583 15.6084 11.85C15.6084 11.85 15.7 9.26668 14.2667 6.27501C14.2667 6.27501 12.9917 5.30001 11.5834 5.27501L11.4417 5.41668C11.4417 5.41668 12.9417 5.85834 13.8 6.62501C13.8 6.62501 12.2334 5.66668 10 5.66668ZM8.27502 8.82501C8.81669 8.82501 9.25835 9.30001 9.25002 9.88334C9.25002 10.4583 8.81669 10.9417 8.27502 10.9417C7.74169 10.9417 7.30835 10.4583 7.30835 9.88334C7.30835 9.30001 7.73335 8.82501 8.27502 8.82501ZM11.75 8.82501C12.2917 8.82501 12.725 9.30001 12.725 9.88334C12.725 10.4583 12.2917 10.9417 11.75 10.9417C11.2167 10.9417 10.7834 10.4583 10.7834 9.88334C10.7834 9.30001 11.2084 8.82501 11.75 8.82501Z" fill="white"/>
</svg>
